<svg xmlns="http://www.w3.org/2000/svg" width="57" height="57" viewBox="0 0 57 57"><g transform="translate(-1685 -23)"><path d="M0,0H57V57H0Z" transform="translate(1685 23)" fill="none"/><path d="M28.125,2A26.125,26.125,0,1,0,54.25,28.125,26.135,26.135,0,0,0,28.125,2Zm0,7.838a7.838,7.838,0,1,1-7.838,7.838A7.827,7.827,0,0,1,28.125,9.838Zm0,37.1A18.811,18.811,0,0,1,12.45,38.523c.078-5.2,10.45-8.047,15.675-8.047,5.2,0,15.6,2.848,15.675,8.047A18.811,18.811,0,0,1,28.125,46.935Z" transform="translate(1685.375 23.375)" fill="#3c3c3c"/></g></svg>