<svg xmlns="http://www.w3.org/2000/svg" width="81.56" height="166.773" viewBox="0 0 81.56 166.773"><path d="M31.292,6.274C33.641,5.1,35.99,5.1,39.514,5.1c0,1.174,0,1.174-1.174,2.349,7.047,0,14.094,1.174,21.14,0,0-1.174,0-1.174-1.174-2.349,7.047,1.174,15.268,2.349,19.966,8.221,5.872,4.7,7.047,11.745,8.221,18.791,1.174,11.745-1.174,23.489-1.174,35.234,2.349,0,3.523,1.174,4.7,2.349v3.523c-1.174,0-3.523-1.174-4.7-1.174v62.246c0,4.7,0,8.221-1.174,12.919-1.174,3.523-2.349,7.047-2.349,10.57a6.459,6.459,0,0,1-3.523,5.872c-2.349,1.174-4.7,3.523-7.047,4.7-5.872,2.349-11.745,2.349-18.791,3.523-5.872,0-11.745,0-16.442-1.174-3.523,0-7.047-1.174-10.57-2.349s-7.047-3.523-8.221-5.872a152.594,152.594,0,0,0-3.523-17.617V129.593c0-19.966,0-38.757-1.174-58.723-1.174,0-2.349,1.174-3.523,1.174-1.174-1.174,0-2.349,0-3.523,1.174-1.174,2.349-2.349,3.523-2.349V47.381c0-1.174,0-3.523-1.174-4.7,0-7.047,0-15.268,3.523-22.315a18.264,18.264,0,0,1,7.047-9.4c2.349-2.349,5.872-3.523,9.4-4.7m-9.4,5.872v5.872a16.213,16.213,0,0,1,3.523-4.7V10.972c-1.174,0-3.523,0-3.523,1.174m52.851,1.174c1.174,1.174,2.349,3.523,3.523,4.7V12.147c0-1.174-1.174-1.174-2.349-1.174-2.349,0-2.349,1.174-1.174,2.349M17.2,16.845v4.7l3.523-3.523c0-1.174,0-2.349-1.174-2.349A3.637,3.637,0,0,0,17.2,16.845M79.445,15.67c-1.174,1.174,0,2.349-1.174,2.349l3.523,3.523v-4.7c0-1.174-2.349-1.174-2.349-1.174M39.514,43.857c-7.047,0-15.268,2.349-21.14,7.047,0,2.349,1.174,5.872,1.174,8.221,1.174,4.7,1.174,9.4,2.349,14.094,0,1.174,0,1.174,1.174,2.349A75.726,75.726,0,0,1,46.56,72.044c4.7,0,10.57,1.174,15.268,1.174,3.523,1.174,8.221,1.174,11.745,2.349a1.15,1.15,0,0,0,1.174-1.174c2.349-5.872,4.7-11.745,4.7-17.617,0-2.349,0-4.7-1.174-7.047,0-1.174-2.349-2.349-3.523-2.349C71.224,46.206,67.7,45.032,63,43.857c-5.872-1.174-14.094-1.174-23.489,0M17.2,61.474v38.757c2.349,0,3.523,1.174,4.7,2.349,0-11.745,0-23.489-3.523-35.234-1.174-3.523-2.349-5.872-2.349-9.4A4.315,4.315,0,0,1,17.2,61.474M80.62,68.521c-1.174,3.523-1.174,7.047-1.174,11.745-1.174,7.047-1.174,15.268-1.174,22.315,1.174-1.174,3.523-1.174,4.7-2.349,0-10.57,1.174-19.966,0-30.536V57.951c0,3.523-1.174,7.047-2.349,10.57M32.467,81.44c-1.174,0-2.349,2.349-2.349,3.523-1.174,3.523-1.174,8.221-2.349,11.745a4.315,4.315,0,0,0,1.174,3.523H68.875A3.75,3.75,0,0,0,72.4,96.708c-1.174-3.523-1.174-8.221-2.349-11.745,0-1.174-2.349-3.523-3.523-3.523H32.467m45.8,21.14V115.5a23.675,23.675,0,0,0,3.523,12.919c0-9.4,1.174-17.617,1.174-27.013v-1.174a8.9,8.9,0,0,1-4.7,2.349M17.2,103.755a199.076,199.076,0,0,0,1.174,25.838A54.861,54.861,0,0,0,21.9,109.627v-5.872c-1.174-1.174-3.523-1.174-4.7-2.349,0,0,0,1.174,0,2.349m9.4,23.489c-1.174,0-1.174,1.174-1.174,2.349,0,5.872,0,11.745-1.174,17.617,0,1.174,1.174,3.523,2.349,3.523a13.336,13.336,0,0,0,9.4,3.523c5.872,1.174,11.745,1.174,17.617,1.174a68.736,68.736,0,0,0,15.268-2.349c2.349-1.174,4.7-2.349,5.872-3.523a4.315,4.315,0,0,0,1.174-3.523c0-5.872,0-11.745-1.174-17.617,0-1.174,0-1.174-1.174-1.174-1.174-1.174-3.523,0-4.7,0a114.019,114.019,0,0,1-39.932,0A1.627,1.627,0,0,0,26.594,127.244Z" transform="translate(-8.456 -5.1)" fill="#6a7284"/></svg>