<svg xmlns="http://www.w3.org/2000/svg" width="64" height="82" viewBox="0 0 64 82"><g transform="translate(-156 -3225)"><g transform="translate(156 3225)"><g transform="translate(8 8)"><path d="M0,0H48V48H0Z" fill="none"/><path d="M40.6,26.156A16.89,16.89,0,0,0,40.755,24a16.891,16.891,0,0,0-.156-2.156l4.713-3.63a1.1,1.1,0,0,0,.268-1.408L41.113,9.194a1.119,1.119,0,0,0-.983-.55,1.058,1.058,0,0,0-.38.066l-5.562,2.2a16.381,16.381,0,0,0-3.775-2.156l-.849-5.83A1.084,1.084,0,0,0,28.47,2H19.535a1.084,1.084,0,0,0-1.094.924l-.849,5.83a17.226,17.226,0,0,0-3.775,2.156L8.255,8.71a1.282,1.282,0,0,0-.4-.066,1.109,1.109,0,0,0-.96.55L2.426,16.806a1.074,1.074,0,0,0,.268,1.408l4.713,3.63A17.189,17.189,0,0,0,7.25,24a17.189,17.189,0,0,0,.156,2.156l-4.713,3.63a1.1,1.1,0,0,0-.268,1.408l4.467,7.612a1.119,1.119,0,0,0,.983.55,1.058,1.058,0,0,0,.38-.066l5.562-2.2a16.381,16.381,0,0,0,3.775,2.156l.849,5.83A1.084,1.084,0,0,0,19.535,46H28.47a1.084,1.084,0,0,0,1.094-.924l.849-5.83a17.226,17.226,0,0,0,3.775-2.156l5.562,2.2a1.282,1.282,0,0,0,.4.066,1.109,1.109,0,0,0,.96-.55l4.467-7.612a1.1,1.1,0,0,0-.268-1.408Zm-4.423-3.762A11.58,11.58,0,0,1,36.288,24c0,.462-.045.946-.112,1.606l-.313,2.486,1.988,1.54,2.412,1.848L38.7,34.142,35.863,33.02,33.54,32.1l-2.01,1.5A13.131,13.131,0,0,1,28.738,35.2l-2.368.946-.357,2.486-.447,2.97H22.439l-.424-2.97-.357-2.486L19.29,35.2a12.723,12.723,0,0,1-2.747-1.562L14.51,32.1l-2.368.946L9.305,34.164,7.742,31.5l2.412-1.848,1.988-1.54-.313-2.486c-.067-.682-.112-1.188-.112-1.628s.045-.946.112-1.606l.313-2.486-1.988-1.54L7.742,16.52l1.564-2.662,2.837,1.122,2.323.924,2.01-1.5A13.131,13.131,0,0,1,19.267,12.8l2.368-.946.357-2.486.447-2.97h3.1l.424,2.97.357,2.486,2.368.946a12.723,12.723,0,0,1,2.747,1.562l2.033,1.54,2.368-.946,2.837-1.122L40.241,16.5l-2.39,1.87-1.988,1.54.313,2.486ZM24,15.2A8.8,8.8,0,1,0,32.937,24,8.866,8.866,0,0,0,24,15.2Zm0,13.2A4.4,4.4,0,1,1,28.47,24,4.447,4.447,0,0,1,24,28.4Z" transform="translate(0 0)" fill="#6A7284"/></g><g fill="none" stroke="#6A7284" stroke-width="4"><rect width="64" height="64" rx="32" stroke="none"/><rect x="2" y="2" width="60" height="60" rx="30" fill="none"/></g></g><rect width="4" height="19" transform="translate(186 3288)" fill="#6A7284"/></g></svg>